HIERARCHY
ROOT Hips
{
	OFFSET 77.262398 -16.949316 94.282700
	CHANNELS 6 Xposition Yposition Zposition Xrotation Yrotation Zrotation
	JOINT spine
	{
		OFFSET 0.000000 -0.448574 7.800591
		CHANNELS 3 Xrotation Yrotation Zrotation
		JOINT spine1
		{
			OFFSET 0.000000 -0.000002 10.136398
			CHANNELS 3 Xrotation Yrotation Zrotation
			JOINT spine2
			{
				OFFSET 0.000000 0.000000 9.712509
				CHANNELS 3 Xrotation Yrotation Zrotation
				JOINT Neck
				{
					OFFSET 0.000000 -1.188875 24.936104
					CHANNELS 3 Xrotation Yrotation Zrotation
					JOINT Head
					{
						OFFSET 0.000000 0.000000 7.533844
						CHANNELS 3 Xrotation Yrotation Zrotation
						End Site
						{
							OFFSET 0.000000 6.014017 18.236099
						}
					}
				}
				JOINT RightShoulder
				{
					OFFSET -4.089653 0.569454 10.488792
					CHANNELS 3 Xrotation Yrotation Zrotation
					JOINT RightArm
					{
						OFFSET 0.000000 -0.000002 13.757004
						CHANNELS 3 Xrotation Yrotation Zrotation
						JOINT RightArmRoll
						{
							OFFSET 0.000000 -0.000002 6.944778
							CHANNELS 3 Xrotation Yrotation Zrotation
							JOINT RightForeArm
							{
								OFFSET 0.000000 -0.000004 20.227692
								CHANNELS 3 Xrotation Yrotation Zrotation
								JOINT RightForeArmRoll
								{
									OFFSET 0.000000 0.000000 7.793137
									CHANNELS 3 Xrotation Yrotation Zrotation
									JOINT RightHand
									{
										OFFSET 0.000000 -0.000004 15.639099
										CHANNELS 3 Xrotation Yrotation Zrotation
										End Site
										{
											OFFSET 0.000000 0.000000 0.100006
										}
									}
								}
							}
						}
					}
				}
				JOINT LeftShoulder
				{
					OFFSET 4.089653 0.569454 10.488792
					CHANNELS 3 Xrotation Yrotation Zrotation
					JOINT LeftArm
					{
						OFFSET 0.000000 -0.000002 13.757004
						CHANNELS 3 Xrotation Yrotation Zrotation
						JOINT LeftArmRoll
						{
							OFFSET 0.000000 -0.000002 6.944778
							CHANNELS 3 Xrotation Yrotation Zrotation
							JOINT LeftForeArm
							{
								OFFSET 0.000000 -0.000004 20.227692
								CHANNELS 3 Xrotation Yrotation Zrotation
								JOINT LeftForeArmRoll
								{
									OFFSET 0.000000 0.000000 7.793121
									CHANNELS 3 Xrotation Yrotation Zrotation
									JOINT LeftHand
									{
										OFFSET 0.000000 -0.000004 15.639099
										CHANNELS 3 Xrotation Yrotation Zrotation
										End Site
										{
											OFFSET 0.000000 0.000000 0.100006
										}
									}
								}
							}
						}
					}
				}
			}
		}
	}
	JOINT RightUpLeg
	{
		OFFSET -6.914146 1.063580 -1.267883
		CHANNELS 3 Xrotation Yrotation Zrotation
		JOINT RightUpLegRoll
		{
			OFFSET 0.000000 -0.000003 18.337799
			CHANNELS 3 Xrotation Yrotation Zrotation
			JOINT RightLeg
			{
				OFFSET 0.000000 0.000004 -22.708496
				CHANNELS 3 Xrotation Yrotation Zrotation
				JOINT RightLegRoll
				{
					OFFSET 0.000000 -0.000004 22.782799
					CHANNELS 3 Xrotation Yrotation Zrotation
					JOINT RightFoot
					{
						OFFSET 0.000000 -0.000003 18.962898
						CHANNELS 3 Xrotation Yrotation Zrotation
						JOINT RightToeBase
						{
							OFFSET 0.000000 -0.000003 15.852005
							CHANNELS 3 Xrotation Yrotation Zrotation
							End Site
							{
								OFFSET 0.006721 0.884892 7.677017
							}
						}
					}
				}
			}
		}
	}
	JOINT LeftUpLeg
	{
		OFFSET 6.914146 1.063580 -1.267883
		CHANNELS 3 Xrotation Yrotation Zrotation
		JOINT LeftUpLegRoll
		{
			OFFSET 0.000000 -0.000003 18.337898
			CHANNELS 3 Xrotation Yrotation Zrotation
			JOINT LeftLeg
			{
				OFFSET 0.000000 -0.000004 22.708397
				CHANNELS 3 Xrotation Yrotation Zrotation
				JOINT LeftLegRoll
				{
					OFFSET 0.000000 -0.000004 22.993393
					CHANNELS 3 Xrotation Yrotation Zrotation
					JOINT LeftFoot
					{
						OFFSET 0.000000 -0.000003 18.752197
						CHANNELS 3 Xrotation Yrotation Zrotation
						JOINT LeftToeBase
						{
							OFFSET 0.000000 -0.000003 15.852005
							CHANNELS 3 Xrotation Yrotation Zrotation
							End Site
							{
								OFFSET -0.030113 0.884892 7.677017
							}
						}
					}
				}
			}
		}
	}
}
MOTION
Frames: 4
Frame Time: 0.041667
67.077896 -16.870216 93.543900 1.245578 0.755837 63.493070 -2.092907 0.947023 0.424604 -0.190251 1.877700 0.874485 1.455120 1.888032 0.851910 4.957067 9.739261 4.416931 -7.464751 -7.949089 3.620610 -14.298358 -49.845785 -16.597032 436.820049 -14.851823 489.791390 0.000003 -0.000005 0.000002 135.316265 -8.672413 21.352035 -0.000035 0.000022 -3.007430 -5.000224 -8.000686 -0.000345 -1.802001 66.925984 3.013974 -96.409671 131.922891 90.274016 -0.000003 -0.000002 0.000001 22.717599 5.320055 0.257101 -0.000006 -0.000009 3.005160 -5.000200 7.998862 -0.000156 10.060898 -174.625438 5.763775 -179.999991 0.000005 -1.451999 160.995072 -2.302414 -1.110740 0.000002 -0.000002 0.427786 69.279920 6.765228 2.451567 47.587048 -5.103365 7.007917 -18.447161 182.003573 7.413593 -0.000003 -0.000004 -1.346742 -17.462559 6.228280 1.082316 -0.000006 -0.000000 -0.200166 77.135048 -7.992903 2.141715 25.456941 7.350316 -0.000004 
67.140594 -16.881617 93.538399 1.301726 0.764281 63.720932 -2.069814 0.947773 0.433621 -0.144207 1.879285 0.892154 1.501156 1.889822 0.869557 4.467952 10.398099 4.296051 -7.183514 -8.612568 3.429081 -14.019401 -49.485352 -16.233891 437.447252 -14.289609 489.379502 0.000003 -0.000004 0.000002 135.062005 -8.650763 20.766410 -0.000038 0.000023 -3.007430 -5.000227 -8.000688 -0.000348 -1.887946 67.398360 3.161105 -96.308912 131.858523 90.305380 -0.000003 -0.000002 0.000001 22.742699 5.403691 0.245154 -0.000006 -0.000006 3.005159 -5.000201 7.998862 -0.000153 10.079601 -174.588323 5.782920 -179.999991 0.000004 -1.452995 160.975155 -2.280387 -1.112053 0.000001 -0.000003 0.423377 69.226897 6.768007 2.447419 47.714315 -5.080284 7.037812 -18.448110 182.124057 7.457137 -0.000001 -0.000006 -1.352903 -17.467772 6.233623 1.082240 -0.000006 -0.000001 -0.199811 77.181349 -8.007959 2.200894 25.456940 7.350317 -0.000006 
67.251404 -16.878813 93.533501 1.358905 0.777232 63.947564 -2.046578 0.948123 0.444109 -0.097904 1.880147 0.912763 1.547463 1.890941 0.890156 3.963409 11.057149 4.179727 -6.892016 -9.274454 3.238539 -13.738920 -49.123192 -15.867633 438.067269 -13.739266 488.909749 0.000003 -0.000005 0.000002 134.786461 -8.618419 20.146654 -0.000040 0.000025 -3.007432 -5.000224 -8.000688 -0.000346 -1.968267 67.867594 3.300614 -96.205380 131.794374 90.330789 -0.000003 -0.000002 -0.000001 22.762220 5.484744 0.233524 -0.000006 -0.000009 3.005161 -5.000200 7.998864 -0.000156 10.093677 -174.552123 5.801658 -179.999991 0.000005 -1.454003 160.954815 -2.260258 -1.112009 0.000002 -0.000002 0.419005 69.174933 6.770743 2.443098 47.840865 -5.057290 7.067285 -18.454632 182.243517 7.501394 -0.000004 -0.000004 -1.358961 -17.474952 6.237570 1.082222 -0.000005 -0.000000 -0.199598 77.226381 -8.022677 2.258632 25.456938 7.350312 -0.000005 
67.333893 -16.869816 93.522408 1.417056 0.794141 64.172653 -2.023154 0.948144 0.455908 -0.051232 1.880429 0.935982 1.594129 1.891488 0.913373 3.444732 11.716183 4.068772 -6.591326 -9.934221 3.049739 -13.457739 -48.758767 -15.499224 438.681412 -13.202219 488.391748 0.000003 -0.000006 0.000002 134.488132 -8.577355 19.499526 -0.000039 0.000020 -3.007432 -5.000222 -8.000688 -0.000344 -2.043972 68.333188 3.433680 -96.098999 131.730389 90.349742 -0.000003 -0.000001 -0.000001 22.776353 5.562956 0.222276 -0.000009 -0.000009 3.005158 -5.000200 7.998863 -0.000155 10.103556 -174.514858 5.820434 -179.999991 0.000004 -1.455999 160.934051 -2.241071 -1.113307 0.000001 -0.000003 0.414702 69.124124 6.773456 2.438607 47.966025 -5.034457 7.096408 -18.465942 182.362909 7.545831 -0.000005 -0.000004 -1.364890 -17.483604 6.240370 1.082243 -0.000006 -0.000001 -0.199485 77.270121 -8.037061 2.314923 25.456936 7.350317 -0.000005 
